<svg width="206" height="48" viewBox="0 0 206 48" fill="none" xmlns="http://www.w3.org/2000/svg">
<path d="M24.5 4.76837e-06C18.0423 4.76837e-06 17.2326 0.0276564 14.6964 0.144407C12.1655 0.260944 10.4371 0.666715 8.92458 1.2599C7.36098 1.87324 6.03495 2.69393 4.7131 4.02813C3.39118 5.36234 2.57809 6.70091 1.9705 8.27912C1.38266 9.80567 0.980793 11.5503 0.865193 14.1048C0.749523 16.6647 0.722198 17.482 0.722198 24.0001C0.722198 30.518 0.749523 31.3353 0.865193 33.8952C0.980793 36.4497 1.38266 38.1943 1.9705 39.7209C2.57816 41.2991 3.39125 42.6375 4.7131 43.9719C6.03502 45.3061 7.36098 46.1268 8.92458 46.7401C10.4371 47.3333 12.1655 47.739 14.6964 47.8556C17.2326 47.9724 18.0423 48 24.5 48C30.9576 48 31.7674 47.9724 34.3035 47.8556C36.8344 47.7391 38.5629 47.3333 40.0753 46.7401C41.6389 46.1268 42.9649 45.3061 44.2869 43.9719C45.6088 42.6375 46.4219 41.2991 47.0295 39.7209C47.6172 38.1943 48.0192 36.4497 48.1347 33.8952C48.2504 31.3353 48.2778 30.518 48.2778 24.0001C48.2778 17.482 48.2504 16.6647 48.1347 14.1048C48.0192 11.5503 47.6172 9.80567 47.0295 8.27912C46.4219 6.70091 45.6088 5.36234 44.2869 4.02813C42.9649 2.69393 41.6389 1.87324 40.0753 1.2599C38.5629 0.666715 36.8344 0.260944 34.3035 0.144407C31.7674 0.0276564 30.9576 4.76837e-06 24.5 4.76837e-06ZM24.5 4.3243C30.8489 4.3243 31.6009 4.34881 34.1082 4.46427C36.4266 4.57095 37.6856 4.96193 38.5234 5.2906C39.6334 5.72603 40.4254 6.24605 41.2574 7.08588C42.0895 7.92572 42.6047 8.72526 43.0361 9.84547C43.3618 10.6912 43.7491 11.962 43.8548 14.3019C43.9692 16.8327 43.9935 17.5918 43.9935 24C43.9935 30.4082 43.9692 31.1673 43.8548 33.6981C43.7491 36.0381 43.3618 37.3089 43.0361 38.1545C42.6047 39.2748 42.0895 40.0743 41.2574 40.9141C40.4254 41.754 39.6333 42.274 38.5234 42.7094C37.6856 43.0381 36.4265 43.4291 34.1082 43.5357C31.6014 43.6512 30.8494 43.6757 24.5 43.6757C18.1506 43.6757 17.3987 43.6512 14.8917 43.5357C12.5734 43.4291 11.3144 43.0381 10.4766 42.7094C9.36659 42.274 8.57453 41.754 7.74254 40.9141C6.91048 40.0743 6.3952 39.2748 5.96381 38.1545C5.63818 37.3088 5.25089 36.038 5.14513 33.6981C5.03073 31.1673 5.00645 30.4082 5.00645 24C5.00645 17.5918 5.03073 16.8327 5.14513 14.3019C5.25089 11.9619 5.63818 10.6912 5.96381 9.84554C6.3952 8.72519 6.91048 7.92572 7.74247 7.08596C8.57453 6.24605 9.36666 5.72603 10.4765 5.2906C11.3144 4.96193 12.5734 4.57095 14.8917 4.46427C17.399 4.34881 18.1511 4.3243 24.5 4.3243Z" fill="black"/>
<path d="M24.5001 32C20.1226 32 16.574 28.4183 16.574 24.0001C16.574 19.5817 20.1226 16 24.5001 16C28.8774 16 32.4259 19.5817 32.4259 24.0001C32.4259 28.4183 28.8774 32 24.5001 32ZM24.5001 11.6757C17.7564 11.6757 12.2898 17.1934 12.2898 24.0001C12.2898 30.8066 17.7564 36.3243 24.5001 36.3243C31.2435 36.3243 36.7102 30.8066 36.7102 24.0001C36.7102 17.1934 31.2435 11.6757 24.5001 11.6757ZM40.046 11.1887C40.046 12.7794 38.7685 14.0687 37.1926 14.0687C35.6168 14.0687 34.3393 12.7794 34.3393 11.1887C34.3393 9.59817 35.6168 8.30869 37.1926 8.30869C38.7685 8.30869 40.046 9.59817 40.046 11.1887Z" fill="black"/>
<path d="M103 4.83333C113.568 4.83333 122.167 13.4315 122.167 24C122.167 34.5685 113.568 43.1667 103 43.1667C92.4315 43.1667 83.8333 34.5685 83.8333 24C83.8333 13.4315 92.4315 4.83333 103 4.83333ZM103 1C90.2982 1 80 11.2983 80 24C80 36.7017 90.2982 47 103 47C115.702 47 126 36.7017 126 24C126 11.2983 115.702 1 103 1ZM115.458 17.8245C114.613 18.2002 113.703 18.4532 112.748 18.5682C113.724 17.9836 114.469 17.0597 114.824 15.9577C113.912 16.4982 112.901 16.8911 111.826 17.1019C110.968 16.1838 109.739 15.6108 108.384 15.6108C105.336 15.6108 103.098 18.4532 103.786 21.4048C99.8662 21.2074 96.3875 19.3291 94.0607 16.4752C92.8244 18.595 93.4205 21.3703 95.5212 22.7752C94.7487 22.7503 94.0223 22.5376 93.386 22.1849C93.3342 24.3699 94.9021 26.415 97.1714 26.8712C96.5082 27.0513 95.7799 27.0935 95.0401 26.9517C95.64 28.8262 97.3861 30.1889 99.4484 30.2272C97.4608 31.7836 94.9634 32.4793 92.4583 32.1842C94.5475 33.5239 97.0257 34.304 99.6899 34.304C108.453 34.304 113.402 26.9037 113.103 20.2663C114.027 19.6032 114.826 18.7713 115.458 17.8245Z" fill="black"/>
<path d="M182.5 3.91667C193.298 3.91667 202.083 12.7017 202.083 23.5C202.083 34.2983 193.298 43.0833 182.5 43.0833C171.702 43.0833 162.917 34.2983 162.917 23.5C162.917 12.7017 171.702 3.91667 182.5 3.91667ZM182.5 0C169.522 0 159 10.5221 159 23.5C159 36.4779 169.522 47 182.5 47C195.478 47 206 36.4779 206 23.5C206 10.5221 195.478 0 182.5 0ZM178.583 19.5833H174.667V23.5H178.583V35.25H184.458V23.5H188.022L188.375 19.5833H184.458V17.952C184.458 17.016 184.646 16.6458 185.551 16.6458H188.375V11.75H183.667C180.146 11.75 178.583 13.301 178.583 16.2698V19.5833Z" fill="black"/>
</svg>
